<svg width="32" height="32" viewBox="0 0 32 32" fill="none" xmlns="http://www.w3.org/2000/svg">
<path d="M23.4134 28C23.2001 28.0009 22.9898 27.9506 22.8 27.8534L16 24.2934L9.20002 27.8534C8.97921 27.9695 8.73026 28.0213 8.48146 28.003C8.23265 27.9846 7.99399 27.8968 7.79259 27.7496C7.59119 27.6024 7.43514 27.4016 7.34217 27.1701C7.2492 26.9386 7.22305 26.6857 7.26669 26.44L8.60002 18.9334L3.10669 13.6C2.9353 13.429 2.81371 13.2145 2.75499 12.9796C2.69626 12.7447 2.70261 12.4983 2.77335 12.2667C2.85063 12.0297 2.99279 11.8192 3.18369 11.6589C3.37458 11.4986 3.60658 11.3951 3.85335 11.36L11.4534 10.2534L14.8 3.41336C14.9092 3.18793 15.0797 2.99781 15.2919 2.86479C15.5041 2.73176 15.7495 2.66121 16 2.66121C16.2505 2.66121 16.4959 2.73176 16.7081 2.86479C16.9204 2.99781 17.0908 3.18793 17.2 3.41336L20.5867 10.24L28.1867 11.3467C28.4335 11.3818 28.6655 11.4853 28.8564 11.6456C29.0473 11.8058 29.1894 12.0164 29.2667 12.2534C29.3374 12.4849 29.3438 12.7314 29.2851 12.9663C29.2263 13.2012 29.1047 13.4157 28.9334 13.5867L23.44 18.92L24.7734 26.4267C24.821 26.6767 24.796 26.935 24.7015 27.1713C24.607 27.4076 24.4469 27.6118 24.24 27.76C23.9986 27.9292 23.7079 28.0136 23.4134 28V28Z" stroke="#434670" stroke-width="2" stroke-linecap="round" stroke-linejoin="round"/>
</svg>
